<?xml version="1.0" encoding="UTF-8" ?>
<!DOCTYPE svg PUBLIC "-//W3C//DTD SVG 1.1//EN" "http://www.w3.org/Graphics/SVG/1.1/DTD/svg11.dtd">
<svg width="189pt" height="56pt" viewBox="0 0 189 56" version="1.1" xmlns="http://www.w3.org/2000/svg">
<g id="#ffffffff">
</g>
<g id="#eb6165ff">
<path fill="#eb6165" opacity="1.00" d=" M 47.62 1.21 C 76.01 1.28 104.40 1.27 132.79 1.21 C 129.83 4.50 126.80 7.73 123.86 11.04 C 101.98 11.14 80.09 11.06 58.21 11.08 C 58.21 15.47 58.21 19.86 58.21 24.25 C 64.06 24.23 69.92 24.34 75.77 24.17 L 75.77 24.55 C 72.80 27.23 70.00 30.09 67.11 32.85 C 64.14 32.80 61.17 32.79 58.21 32.84 C 58.21 35.92 58.22 39.00 58.22 42.08 C 54.66 43.78 51.09 45.45 47.48 47.04 C 47.60 31.76 47.33 16.48 47.62 1.21 Z" />
<path fill="#eb6165" opacity="1.00" d=" M 47.52 49.10 C 51.08 47.45 54.64 45.79 58.22 44.19 C 58.21 47.45 58.21 50.71 58.22 53.97 C 54.65 54.07 51.08 54.08 47.51 54.06 C 47.50 52.40 47.50 50.75 47.52 49.10 Z" />
</g>
<g id="#080808ff">
<path fill="#080808" opacity="1.00" d=" M 75.77 17.36 C 76.77 17.50 77.75 17.77 78.66 18.22 C 79.66 17.80 80.66 17.36 81.64 16.89 C 81.77 17.54 82.01 18.83 82.14 19.48 C 80.84 19.89 79.00 19.85 78.44 21.39 C 78.10 25.09 78.39 28.81 78.32 32.53 C 77.69 32.52 76.42 32.51 75.79 32.51 C 75.76 29.85 75.77 27.20 75.77 24.55 L 75.77 24.17 C 75.80 21.90 75.78 19.63 75.77 17.36 Z" />
<path fill="#080808" opacity="1.00" d=" M 84.03 27.06 C 83.30 23.06 84.78 16.72 89.99 17.29 C 94.37 17.28 94.97 22.40 94.87 25.73 C 92.00 25.76 89.12 25.72 86.25 25.76 C 86.60 27.44 86.61 29.60 88.43 30.43 C 90.33 31.27 92.13 30.01 93.71 29.10 C 96.01 31.45 91.93 32.79 90.01 32.76 C 86.70 33.20 83.95 30.27 84.03 27.06 M 86.26 23.62 C 88.36 23.64 90.47 23.64 92.58 23.60 C 92.02 22.10 92.02 19.46 89.87 19.38 C 87.38 18.90 86.57 21.75 86.26 23.62 Z" />
<path fill="#080808" opacity="1.00" d=" M 98.10 20.11 C 99.40 17.23 103.32 16.46 105.86 18.10 C 108.22 19.88 107.82 23.14 108.13 25.75 C 105.23 25.75 102.34 25.72 99.44 25.76 C 99.93 27.34 99.82 29.56 101.57 30.38 C 103.48 31.30 105.36 30.05 106.97 29.12 C 107.22 29.56 107.73 30.46 107.99 30.90 C 105.06 33.53 99.39 33.65 97.77 29.51 C 97.00 26.48 96.87 23.04 98.10 20.11 M 99.43 23.58 C 101.56 23.63 103.68 23.63 105.81 23.59 C 105.35 21.95 105.12 19.18 102.79 19.36 C 100.40 19.15 100.02 21.87 99.43 23.58 Z" />
<path fill="#080808" opacity="1.00" d=" M 110.45 17.53 C 113.82 17.53 117.20 17.46 120.58 17.63 C 118.95 22.32 115.68 26.18 113.17 30.41 C 115.62 30.43 118.07 30.41 120.52 30.44 C 120.51 30.95 120.49 31.99 120.48 32.51 C 117.04 32.49 113.59 32.54 110.15 32.49 C 111.28 27.65 114.98 23.94 117.31 19.64 C 115.00 19.64 112.69 19.66 110.38 19.62 C 110.40 19.10 110.43 18.05 110.45 17.53 Z" />
<path fill="#080808" opacity="1.00" d=" M 121.91 17.53 C 122.61 17.54 124.03 17.56 124.74 17.57 C 125.55 21.11 126.41 24.63 127.38 28.12 C 128.43 24.67 129.11 21.13 130.15 17.69 C 130.81 17.61 132.13 17.45 132.79 17.37 C 130.89 23.65 129.41 30.08 127.20 36.26 C 126.50 38.39 123.05 39.72 122.16 36.97 C 124.43 36.39 126.49 34.74 126.27 32.18 C 124.91 27.27 123.42 22.39 121.91 17.53 Z" />
<path fill="#080808" opacity="1.00" d=" M 89.23 37.80 C 90.06 37.79 91.72 37.76 92.55 37.74 C 92.62 42.38 92.60 47.02 92.56 51.66 C 94.55 51.66 96.54 51.65 98.53 51.65 C 98.53 52.38 98.54 53.82 98.55 54.54 C 95.42 54.51 92.29 54.54 89.17 54.48 C 89.28 48.92 89.20 43.36 89.23 37.80 Z" />
<path fill="#080808" opacity="1.00" d=" M 100.44 54.55 C 100.47 48.94 100.40 43.33 100.50 37.72 C 101.33 37.74 102.99 37.79 103.82 37.81 C 103.83 42.44 103.78 47.07 103.87 51.70 C 105.82 51.68 107.77 51.66 109.72 51.64 C 109.74 52.36 109.77 53.79 109.79 54.51 C 106.67 54.52 103.55 54.51 100.44 54.55 Z" />
<path fill="#080808" opacity="1.00" d=" M 111.55 42.12 C 112.13 38.08 117.31 36.26 120.53 38.47 C 122.25 39.55 122.56 41.65 123.12 43.43 C 121.95 43.48 120.78 43.53 119.61 43.58 C 119.49 42.87 119.23 41.44 119.11 40.73 C 117.61 40.44 115.32 40.00 114.94 42.10 C 114.67 45.12 113.98 48.69 115.58 51.40 C 117.60 53.07 119.54 50.96 119.81 48.89 C 120.62 48.90 122.23 48.91 123.04 48.91 C 123.08 53.26 118.46 56.10 114.55 54.26 C 110.25 51.93 111.19 46.17 111.55 42.12 Z" />
<path fill="#080808" opacity="1.00" d=" M 125.51 51.69 C 126.55 49.90 129.94 51.89 128.63 53.62 C 127.68 56.08 123.51 53.69 125.51 51.69 Z" />
</g>
</svg>
